<svg width="40" height="40" viewBox="0 0 40 40" fill="none" xmlns="http://www.w3.org/2000/svg">
<circle cx="20" cy="20" r="20" transform="matrix(-1 0 0 1 40 6.10352e-05)" fill="white"/>
<rect width="20.4255" height="20.4255" transform="matrix(-1 0 0 1 29.7871 9.36188)" fill="white"/>
<path d="M19.5753 23.4776C19.9076 23.81 19.9076 24.3487 19.5753 24.681C19.2429 25.0134 18.7042 25.0134 18.3719 24.681L13.9726 20.2818C13.5821 19.8912 13.5821 19.2581 13.9726 18.8676L18.3719 14.4683C18.7042 14.136 19.2429 14.136 19.5753 14.4683C19.9076 14.8006 19.9076 15.3394 19.5753 15.6717L16.5233 18.7236H23.8306C24.3006 18.7236 24.6816 19.1046 24.6816 19.5747C24.6816 20.0447 24.3006 20.4257 23.8306 20.4257H16.5233L19.5753 23.4776Z" fill="#FF2C33"/>
</svg>
