<svg width="40" height="40" viewBox="0 0 40 40" fill="none" xmlns="http://www.w3.org/2000/svg">
<circle cx="20.0001" cy="20.0001" r="20" fill="white"/>
<rect width="20.4255" height="20.4255" transform="translate(10.213 9.36188)" fill="white"/>
<path d="M20.4249 23.4776C20.0926 23.81 20.0926 24.3487 20.4249 24.681C20.7572 25.0134 21.296 25.0134 21.6283 24.681L26.0275 20.2818C26.4181 19.8912 26.4181 19.2581 26.0275 18.8676L21.6283 14.4683C21.296 14.136 20.7572 14.136 20.4249 14.4683C20.0926 14.8006 20.0926 15.3394 20.4249 15.6717L23.4768 18.7236H16.1695C15.6995 18.7236 15.3185 19.1046 15.3185 19.5747C15.3185 20.0447 15.6995 20.4257 16.1695 20.4257H23.4768L20.4249 23.4776Z" fill="#FF2C33"/>
</svg>
