<svg width="16" height="16" viewBox="0 0 16 16" fill="none" xmlns="http://www.w3.org/2000/svg">
<g opacity="0.3" clip-path="url(#clip0_4247_1312)">
<path d="M12.0649 8.00001C12.0649 7.74114 12.2748 7.53126 12.5337 7.53126H13.5208C13.295 4.84958 11.1511 2.70561 8.46937 2.47986V3.46698C8.46937 3.72586 8.2595 3.93573 8.00062 3.93573C7.74175 3.93573 7.53187 3.72586 7.53187 3.46698V2.47986C4.85019 2.70561 2.70622 4.84958 2.48047 7.53126H3.46756C3.72644 7.53126 3.93631 7.74114 3.93631 8.00001C3.93631 8.25889 3.72644 8.46876 3.46756 8.46876H2.48047C2.70622 11.1505 4.85019 13.2944 7.53187 13.5202V12.533C7.53187 12.2742 7.74175 12.0643 8.00062 12.0643C8.2595 12.0643 8.46937 12.2742 8.46937 12.533V13.5202C11.1511 13.2944 13.295 11.1505 13.5208 8.46876H12.5337C12.2748 8.46876 12.0649 8.25889 12.0649 8.00001ZM10.8316 5.76161L8.33666 8.32683C8.16297 8.50539 7.87984 8.51701 7.69213 8.35292L5.82969 6.72476C5.63478 6.55439 5.61491 6.25823 5.78531 6.06336C5.95569 5.86845 6.25181 5.84851 6.44675 6.01895L7.97453 7.35455L10.1596 5.10795C10.3401 4.92239 10.6368 4.9183 10.8224 5.09873C11.008 5.2793 11.0121 5.57605 10.8316 5.76161Z" fill="black"/>
<path d="M8 0C3.58878 0 0 3.58878 0 8C0 12.4112 3.58878 16 8 16C12.4112 16 16 12.4112 16 8C16 3.58878 12.4112 0 8 0ZM8 14.4777C4.42819 14.4777 1.52231 11.5718 1.52231 8C1.52231 4.42819 4.42819 1.52231 8 1.52231C11.5718 1.52231 14.4777 4.42819 14.4777 8C14.4777 11.5718 11.5718 14.4777 8 14.4777Z" fill="black"/>
</g>
<defs>
<clipPath id="clip0_4247_1312">
<rect width="16" height="16" fill="white"/>
</clipPath>
</defs>
</svg>
