<svg width="144" height="40" viewBox="0 0 144 40" fill="none" xmlns="http://www.w3.org/2000/svg">
<g clip-path="url(#clip0_365_404)">
<path d="M68.7427 24.1509V22.1943L72.7583 21.16L74.5555 15.9329H77.0828V20.8246H85.816V24.123H77.0828V32.2292C77.0828 33.2635 77.2232 34.102 77.5321 34.717C77.841 35.3319 78.2903 35.7792 78.908 36.0587C79.5258 36.3382 80.3683 36.45 81.4073 36.45C82.362 36.45 83.2045 36.3382 83.9626 36.1426C84.7208 35.9469 85.4509 35.6394 86.153 35.2201V38.7701C85.5071 39.1055 84.6647 39.385 83.6257 39.6366C82.5867 39.8882 81.5196 40 80.4806 40C77.841 40 75.9034 39.3571 74.6397 38.0992C73.4041 36.8414 72.7583 35.1083 72.7583 32.8721V24.1509H68.7427Z" fill="#221E1E"/>
<path d="M98.1997 39.5528V20.7128L100.362 21.1041L102.524 20.7128V39.5528H98.1997Z" fill="#ED353A"/>
<path d="M114.852 18.0293C114.065 18.7282 113.7 19.8183 113.7 21.3557V22.1384H122.293V25.4368H113.7V39.5528H109.376V25.4368H105.36V22.1384H109.376V21.747C109.376 20.0978 109.685 18.6723 110.303 17.4703C110.92 16.2683 111.875 15.318 113.167 14.6471C114.459 13.9762 116.059 13.6408 117.969 13.6408C118.867 13.6408 119.654 13.6967 120.384 13.8365C121.114 13.9762 121.872 14.1719 122.658 14.4514V17.8337C121.395 17.2746 120.019 16.9672 118.474 16.9672C116.846 16.9672 115.638 17.3305 114.852 18.0293Z" fill="#ED353A"/>
<path d="M127.572 31.7261C127.937 33.2914 128.808 34.4934 130.128 35.3599C131.448 36.2264 133.132 36.6457 135.154 36.6457C136.614 36.6457 138.075 36.4221 139.591 35.9469C141.079 35.4997 142.427 34.8567 143.579 34.0461V37.1768C142.427 38.0713 141.023 38.7421 139.366 39.2453C137.71 39.7484 136.053 40 134.34 40C132.15 40 130.212 39.5807 128.499 38.7701C126.786 37.9595 125.438 36.7855 124.483 35.304C123.529 33.8225 123.051 32.0894 123.051 30.1607C123.051 28.232 123.501 26.5549 124.427 25.0734C125.354 23.5919 126.618 22.4458 128.274 21.6073C129.903 20.7966 131.784 20.3774 133.863 20.3774C135.941 20.3774 137.738 20.8525 139.31 21.775C140.855 22.7254 142.062 24.0391 142.905 25.7442C143.747 27.4493 144.168 29.434 144.168 31.6981H127.572V31.7261ZM130.774 24.3187C129.903 24.71 129.201 25.2411 128.639 25.9399C128.078 26.6387 127.685 27.4773 127.516 28.4277H139.591C139.282 26.9462 138.608 25.8001 137.569 24.9616C136.53 24.1509 135.238 23.7317 133.666 23.7317C132.599 23.7596 131.644 23.9273 130.774 24.3187Z" fill="#ED353A"/>
<path d="M98.2837 18.8679C97.5817 18.8679 96.8797 18.4766 96.5427 17.8057C96.0373 16.8553 96.4304 15.6534 97.4132 15.1782C101.653 13.0259 107.944 8.74913 108.59 6.00978C108.674 5.5905 108.618 5.31097 108.393 5.00349C107.887 4.33264 107.551 4.36059 107.438 4.36059C106.315 4.38854 104.405 6.2334 103.479 7.57512C103.114 8.10622 102.496 8.4137 101.85 8.4137C101.204 8.4137 100.586 8.07827 100.221 7.54717C99.0981 5.87002 97.1324 3.96925 96.1215 3.9413C96.0373 3.9413 95.8126 3.9413 95.4756 4.41649C95.2791 4.69602 95.2229 4.94759 95.2791 5.25507C95.5599 6.79245 98.0591 8.80503 99.1543 9.50384C100.081 10.0908 100.334 11.2928 99.744 12.2152C99.1543 13.1377 97.9468 13.3892 97.0201 12.8022C96.5146 12.4948 92.1059 9.5877 91.4039 6.00978C91.1511 4.61216 91.432 3.29839 92.2744 2.12439C93.5661 0.33543 95.1106 6.63102e-07 96.2057 0.0279531C98.4803 0.0838581 100.53 1.81691 101.906 3.3543C103.226 2.01258 105.192 0.503145 107.354 0.44724C108.477 0.419288 110.134 0.78267 111.538 2.68344C112.465 3.91335 112.774 5.39483 112.409 6.93222C111.117 12.4109 101.176 17.6939 99.2104 18.7002C98.8734 18.812 98.5646 18.8679 98.2837 18.8679Z" fill="#ED353A"/>
<path d="M91.4601 14.5073L89.2979 14.0881V39.5528H93.6223V14.0881L91.4601 14.5073Z" fill="#ED353A"/>
<path d="M65.8503 30.1328C64.727 29.2103 62.8175 28.6233 60.1217 28.3438L55.376 27.9245C54 27.8127 53.0453 27.5891 52.4837 27.2537C51.922 26.9182 51.6412 26.499 51.6412 25.9679C51.6412 25.2131 52.0625 24.6541 52.933 24.2348C53.8035 23.8155 55.011 23.6198 56.5835 23.6198C57.9314 23.6198 59.0827 23.7596 59.9813 24.0671C60.8799 24.3746 61.5539 24.7659 62.0032 25.2411C62.4525 25.7163 62.7333 26.2194 62.8175 26.7505H62.8456L65.0079 26.3592L67.1701 26.7505H67.1982C67.0859 25.4927 66.5804 24.4025 65.6818 23.4242C64.7832 22.4738 63.5476 21.7191 62.0032 21.16C60.4587 20.6289 58.7458 20.3494 56.8082 20.3494C54.9267 20.3494 53.2699 20.573 51.8378 21.0203C50.4057 21.4675 49.3105 22.1384 48.5242 23.0049C47.738 23.8714 47.3448 24.9336 47.3448 26.1915C47.3448 27.673 47.9626 28.9029 49.1982 29.8812C50.4337 30.8595 52.4556 31.5024 55.2637 31.7261L58.9423 32.0615C60.0656 32.1733 60.9361 32.2851 61.5539 32.4528C62.1717 32.6205 62.621 32.8442 62.9018 33.0957C63.1545 33.3473 63.2949 33.6827 63.2949 34.102C63.2949 34.9965 62.8456 35.6394 61.947 36.0587C61.0484 36.478 59.7005 36.7016 57.8752 36.7016C56.6397 36.7016 55.5445 36.5618 54.5617 36.2544C53.6069 35.9748 52.8206 35.5556 52.2309 35.0245C51.6412 34.4934 51.2762 33.8784 51.1639 33.1516L48.9735 33.543L46.7832 33.1516C46.8394 34.4934 47.3448 35.6953 48.2434 36.7016C49.142 37.7079 50.4057 38.5185 52.0625 39.0776C53.7192 39.6366 55.6288 39.9161 57.8472 39.9161C59.9813 39.9161 61.7785 39.6646 63.2107 39.1614C64.6428 38.6583 65.738 37.9595 66.4681 37.037C67.1982 36.1146 67.5352 35.0245 67.5352 33.7666C67.5352 32.3131 66.9735 31.0552 65.8503 30.1328Z" fill="#221E1E"/>
<path d="M44.8734 20.8526L42.655 21.2718L40.4366 20.8526H40.4085L39.9312 25.4927C38.9483 23.8714 37.7128 22.6415 36.2245 21.747C34.7362 20.8526 33.0794 20.4053 31.2822 20.4053C29.485 20.4053 27.8563 20.8246 26.4241 21.6352C24.992 22.4458 23.8968 23.6198 23.0825 25.1013C22.2681 26.5828 21.875 28.2879 21.875 30.2166C21.875 32.1454 22.2681 33.8505 23.0825 35.3319C23.8688 36.8134 24.992 37.9874 26.4241 38.798C27.8563 39.6087 29.485 40.028 31.2822 40.028C33.0794 40.028 34.7362 39.5807 36.2245 38.6862C37.7128 37.7918 38.9483 36.5339 39.9312 34.9126L40.4085 39.5528L42.627 39.1335L44.8454 39.5528L43.8625 30.1887L44.8734 20.8526ZM38.3025 33.543C37.5162 34.4934 36.5895 35.2481 35.5786 35.7792C34.5677 36.3103 33.4725 36.5898 32.2931 36.5898C31.1137 36.5898 30.1028 36.3103 29.1761 35.7792C28.2494 35.2481 27.5474 34.4934 27.0138 33.515C26.5084 32.5367 26.2557 31.4465 26.2557 30.2166C26.2557 28.9867 26.5084 27.8966 27.0138 26.9182C27.5193 25.9679 28.2494 25.2131 29.1761 24.6541C30.1028 24.095 31.1418 23.8435 32.2931 23.8435C33.4444 23.8435 34.5396 24.123 35.5786 24.6541C36.5895 25.1852 37.5162 25.9399 38.3025 26.8903C39.0887 27.8407 39.7346 28.9588 40.212 30.2166C39.7346 31.4745 39.0887 32.5646 38.3025 33.543Z" fill="#221E1E"/>
<path d="M20.5554 18.5884V14.7589H0V39.5528L2.19033 39.1614L4.38066 39.5528V29.434H20.0218V25.6045H4.38066V18.5884H20.5554Z" fill="#221E1E"/>
</g>
<defs>
<clipPath id="clip0_365_404">
<rect width="144" height="40" fill="white"/>
</clipPath>
</defs>
</svg>
