<svg width="16" height="16" viewBox="0 0 16 16" fill="none" xmlns="http://www.w3.org/2000/svg">
<g opacity="0.3">
<path d="M8.00018 1.96344C3.58195 1.96344 9.15527e-05 5.57933 9.15527e-05 10.0398C9.15527e-05 12.4584 1.04384 14.0357 1.04384 14.0357L14.9532 14.0364C14.9532 14.0364 15.9999 12.3125 15.9999 10.0396C15.9999 5.57933 12.4181 1.96344 8.00018 1.96344ZM14.3664 13.0525L1.65925 13.047C1.65925 13.047 0.982143 11.7647 0.982143 10.0143C0.982143 6.10489 4.13618 2.93543 8.027 2.93543C11.9177 2.93543 15.0719 6.10472 15.0719 10.0143C15.072 11.7845 14.3664 13.0525 14.3664 13.0525Z" fill="black"/>
<path d="M10.262 4.10808L10.1615 4.10791L8.02762 8.28943L5.81692 4.0722L2.79013 11.6907H2.0079V12.3026H6.29319V11.6907H5.44291L6.29319 9.3097L8.02762 12.3026L9.69416 9.3097L10.5443 11.6907H9.69416V12.3026H13.9452V11.6907H13.2088L10.262 4.10808Z" fill="black"/>
</g>
</svg>
