<svg width="246" height="52" viewBox="0 0 246 52" fill="none" xmlns="http://www.w3.org/2000/svg">
<rect x="0.5" y="0.5" width="245" height="51" rx="19.5" stroke="#EBEBEB"/>
<path d="M62.5 8.5C54.2155 8.5 47.5 15.2155 47.5 23.5C47.5 27.6407 49.1778 31.39 51.8913 34.1042C54.6055 36.82 61 40.75 61.375 44.875C61.4312 45.4935 61.879 46 62.5 46C63.121 46 63.5688 45.4935 63.625 44.875C64 40.75 70.3945 36.82 73.1087 34.1042C75.8222 31.39 77.5 27.6407 77.5 23.5C77.5 15.2155 70.7845 8.5 62.5 8.5Z" fill="#FF4433"/>
<path d="M62.5001 28.7505C65.3996 28.7505 67.75 26.4 67.75 23.5005C67.75 20.601 65.3996 18.2505 62.5001 18.2505C59.6006 18.2505 57.2501 20.601 57.2501 23.5005C57.2501 26.4 59.6006 28.7505 62.5001 28.7505Z" fill="white"/>
<path d="M101.818 31.5H100.409V21.1136H97.9318C97.303 21.1136 96.7973 21.2102 96.4148 21.4034C96.0322 21.5928 95.7538 21.8617 95.5795 22.2102C95.4053 22.5587 95.3182 22.9659 95.3182 23.4318C95.3182 23.8977 95.4034 24.2992 95.5739 24.6364C95.7481 24.9697 96.0246 25.2273 96.4034 25.4091C96.786 25.5909 97.2879 25.6818 97.9091 25.6818H101.045V26.9545H97.8636C96.9621 26.9545 96.2216 26.8049 95.642 26.5057C95.0625 26.2027 94.6326 25.786 94.3523 25.2557C94.072 24.7254 93.9318 24.1174 93.9318 23.4318C93.9318 22.7462 94.072 22.1345 94.3523 21.5966C94.6326 21.0587 95.0644 20.6364 95.6477 20.3295C96.2311 20.0189 96.9773 19.8636 97.8864 19.8636H101.818V31.5ZM96.3409 26.2727H97.9318L95.1136 31.5H93.4773L96.3409 26.2727ZM110.303 26.5227V27.7727H105.484V26.5227H110.303ZM105.803 22.7727V31.5H104.462V22.7727H105.803ZM111.325 22.7727V31.5H109.984V22.7727H111.325ZM112.842 34V30.25H113.57C113.748 30.0644 113.901 29.8636 114.03 29.6477C114.159 29.4318 114.27 29.1761 114.365 28.8807C114.464 28.5814 114.547 28.2178 114.615 27.7898C114.683 27.358 114.744 26.8371 114.797 26.2273L115.092 22.7727H120.638V30.25H121.979V34H120.638V31.5H114.183V34H112.842ZM115.092 30.25H119.297V24.0227H116.342L116.115 26.2273C116.02 27.1402 115.903 27.9375 115.763 28.6193C115.623 29.3011 115.399 29.8447 115.092 30.25ZM127.418 31.6818C126.577 31.6818 125.851 31.4962 125.241 31.125C124.635 30.75 124.168 30.2273 123.838 29.5568C123.512 28.8826 123.349 28.0985 123.349 27.2045C123.349 26.3106 123.512 25.5227 123.838 24.8409C124.168 24.1553 124.626 23.6212 125.213 23.2386C125.804 22.8523 126.493 22.6591 127.281 22.6591C127.736 22.6591 128.185 22.7348 128.628 22.8864C129.071 23.0379 129.474 23.2841 129.838 23.625C130.202 23.9621 130.491 24.4091 130.707 24.9659C130.923 25.5227 131.031 26.2083 131.031 27.0227V27.5909H124.304V26.4318H129.668C129.668 25.9394 129.569 25.5 129.372 25.1136C129.179 24.7273 128.902 24.4223 128.543 24.1989C128.187 23.9754 127.766 23.8636 127.281 23.8636C126.747 23.8636 126.285 23.9962 125.895 24.2614C125.509 24.5227 125.211 24.8636 125.003 25.2841C124.795 25.7045 124.69 26.1553 124.69 26.6364V27.4091C124.69 28.0682 124.804 28.6269 125.031 29.0852C125.262 29.5398 125.582 29.8864 125.991 30.125C126.401 30.3598 126.876 30.4773 127.418 30.4773C127.77 30.4773 128.088 30.428 128.372 30.3295C128.66 30.2273 128.908 30.0758 129.116 29.875C129.325 29.6705 129.486 29.4167 129.599 29.1136L130.895 29.4773C130.759 29.9167 130.529 30.303 130.207 30.6364C129.885 30.9659 129.488 31.2235 129.014 31.4091C128.541 31.5909 128.009 31.6818 127.418 31.6818ZM133.071 31.5V22.7727H134.412V26.5682H135.298L138.435 22.7727H140.162L136.639 26.9773L140.207 31.5H138.48L135.616 27.8182H134.412V31.5H133.071ZM144.851 31.6818C144.033 31.6818 143.328 31.4886 142.737 31.1023C142.146 30.7159 141.692 30.1837 141.374 29.5057C141.055 28.8277 140.896 28.053 140.896 27.1818C140.896 26.2955 141.059 25.5133 141.385 24.8352C141.714 24.1534 142.173 23.6212 142.76 23.2386C143.351 22.8523 144.04 22.6591 144.828 22.6591C145.442 22.6591 145.995 22.7727 146.487 23C146.98 23.2273 147.383 23.5455 147.697 23.9545C148.012 24.3636 148.207 24.8409 148.283 25.3864H146.942C146.839 24.9886 146.612 24.6364 146.26 24.3295C145.911 24.0189 145.442 23.8636 144.851 23.8636C144.328 23.8636 143.87 24 143.476 24.2727C143.086 24.5417 142.781 24.9223 142.561 25.4148C142.345 25.9034 142.237 26.4773 142.237 27.1364C142.237 27.8106 142.343 28.3977 142.555 28.8977C142.771 29.3977 143.074 29.786 143.464 30.0625C143.858 30.339 144.321 30.4773 144.851 30.4773C145.199 30.4773 145.516 30.4167 145.8 30.2955C146.084 30.1742 146.324 30 146.521 29.7727C146.718 29.5455 146.858 29.2727 146.942 28.9545H148.283C148.207 29.4697 148.019 29.9337 147.72 30.3466C147.425 30.7557 147.033 31.0814 146.544 31.3239C146.059 31.5625 145.495 31.6818 144.851 31.6818ZM161.766 31.5L157.766 26.1591H156.334V31.5H154.925V19.8636H156.334V24.9091H156.947L161.607 19.8636H163.288L158.584 24.9773L163.447 31.5H161.766ZM167.655 31.7045C167.102 31.7045 166.6 31.6004 166.149 31.392C165.698 31.1799 165.34 30.875 165.075 30.4773C164.81 30.0758 164.678 29.5909 164.678 29.0227C164.678 28.5227 164.776 28.1174 164.973 27.8068C165.17 27.4924 165.433 27.2462 165.763 27.0682C166.092 26.8902 166.456 26.7576 166.854 26.6705C167.255 26.5795 167.659 26.5076 168.064 26.4545C168.594 26.3864 169.024 26.3352 169.354 26.3011C169.687 26.2633 169.929 26.2008 170.081 26.1136C170.236 26.0265 170.314 25.875 170.314 25.6591V25.6136C170.314 25.053 170.161 24.6174 169.854 24.3068C169.551 23.9962 169.09 23.8409 168.473 23.8409C167.833 23.8409 167.331 23.9811 166.967 24.2614C166.604 24.5417 166.348 24.8409 166.2 25.1591L164.928 24.7045C165.155 24.1742 165.458 23.7614 165.837 23.4659C166.219 23.1667 166.636 22.9583 167.087 22.8409C167.541 22.7197 167.988 22.6591 168.428 22.6591C168.708 22.6591 169.03 22.6932 169.393 22.7614C169.761 22.8258 170.115 22.9602 170.456 23.1648C170.801 23.3693 171.087 23.678 171.314 24.0909C171.541 24.5038 171.655 25.0568 171.655 25.75V31.5H170.314V30.3182H170.246C170.155 30.5076 170.003 30.7102 169.791 30.9261C169.579 31.142 169.297 31.3258 168.945 31.4773C168.592 31.6288 168.162 31.7045 167.655 31.7045ZM167.859 30.5C168.39 30.5 168.837 30.3958 169.2 30.1875C169.568 29.9792 169.844 29.7102 170.03 29.3807C170.219 29.0511 170.314 28.7045 170.314 28.3409V27.1136C170.257 27.1818 170.132 27.2443 169.939 27.3011C169.75 27.3542 169.53 27.4015 169.28 27.4432C169.034 27.4811 168.793 27.5152 168.558 27.5455C168.327 27.572 168.14 27.5947 167.996 27.6136C167.647 27.6591 167.321 27.733 167.018 27.8352C166.719 27.9337 166.477 28.0833 166.291 28.2841C166.109 28.4811 166.018 28.75 166.018 29.0909C166.018 29.5568 166.191 29.9091 166.536 30.1477C166.884 30.3826 167.325 30.5 167.859 30.5ZM174.102 34.7727V22.7727H175.398V24.1591H175.557C175.655 24.0076 175.792 23.8144 175.966 23.5795C176.144 23.3409 176.398 23.1288 176.727 22.9432C177.061 22.7538 177.511 22.6591 178.08 22.6591C178.814 22.6591 179.462 22.8428 180.023 23.2102C180.583 23.5777 181.021 24.0985 181.335 24.7727C181.65 25.447 181.807 26.2424 181.807 27.1591C181.807 28.0833 181.65 28.8845 181.335 29.5625C181.021 30.2367 180.585 30.7595 180.028 31.1307C179.472 31.4981 178.83 31.6818 178.102 31.6818C177.542 31.6818 177.093 31.589 176.756 31.4034C176.419 31.214 176.159 31 175.977 30.7614C175.795 30.5189 175.655 30.3182 175.557 30.1591H175.443V34.7727H174.102ZM175.42 27.1364C175.42 27.7955 175.517 28.3769 175.71 28.8807C175.903 29.3807 176.186 29.7727 176.557 30.0568C176.928 30.3371 177.383 30.4773 177.92 30.4773C178.481 30.4773 178.949 30.3295 179.324 30.0341C179.703 29.7348 179.987 29.3333 180.176 28.8295C180.369 28.322 180.466 27.7576 180.466 27.1364C180.466 26.5227 180.371 25.9697 180.182 25.4773C179.996 24.9811 179.714 24.589 179.335 24.3011C178.96 24.0095 178.489 23.8636 177.92 23.8636C177.375 23.8636 176.917 24.0019 176.545 24.2784C176.174 24.5511 175.894 24.9337 175.705 25.4261C175.515 25.9148 175.42 26.4848 175.42 27.1364ZM182.712 24.0227V22.7727H189.803V24.0227H186.939V31.5H185.598V24.0227H182.712ZM192.918 25.9318H195.418C196.44 25.9318 197.223 26.1913 197.764 26.7102C198.306 27.2292 198.577 27.8864 198.577 28.6818C198.577 29.2045 198.455 29.6799 198.213 30.108C197.971 30.5322 197.615 30.8712 197.145 31.125C196.675 31.375 196.099 31.5 195.418 31.5H191.759V22.7727H193.099V30.25H195.418C195.948 30.25 196.384 30.1098 196.724 29.8295C197.065 29.5492 197.236 29.1894 197.236 28.75C197.236 28.2879 197.065 27.911 196.724 27.6193C196.384 27.3277 195.948 27.1818 195.418 27.1818H192.918V25.9318ZM199.963 31.5V22.7727H201.304V31.5H199.963Z" fill="#272525"/>
</svg>
