<svg width="246" height="52" viewBox="0 0 246 52" fill="none" xmlns="http://www.w3.org/2000/svg">
<rect x="0.5" y="0.5" width="245" height="51" rx="19.5" stroke="#EBEBEB"/>
<path d="M43.5054 28.5054L49.7554 46L66 6L26 22.2554L43.5054 28.5054Z" fill="url(#paint0_linear_4247_1366)"/>
<path d="M49.7555 46L66 6L42.8805 29.1304L49.7555 46Z" fill="#FFCC00"/>
<path d="M47.25 24.7502L26 22.2556L42.2554 29.7556L49.7554 46.0002L47.25 24.7502Z" fill="#ECA704"/>
<path d="M85.3182 31.5H83.9091V21.1136H81.4318C80.803 21.1136 80.2973 21.2102 79.9148 21.4034C79.5322 21.5928 79.2538 21.8617 79.0795 22.2102C78.9053 22.5587 78.8182 22.9659 78.8182 23.4318C78.8182 23.8977 78.9034 24.2992 79.0739 24.6364C79.2481 24.9697 79.5246 25.2273 79.9034 25.4091C80.286 25.5909 80.7879 25.6818 81.4091 25.6818H84.5455V26.9545H81.3636C80.4621 26.9545 79.7216 26.8049 79.142 26.5057C78.5625 26.2027 78.1326 25.786 77.8523 25.2557C77.572 24.7254 77.4318 24.1174 77.4318 23.4318C77.4318 22.7462 77.572 22.1345 77.8523 21.5966C78.1326 21.0587 78.5644 20.6364 79.1477 20.3295C79.7311 20.0189 80.4773 19.8636 81.3864 19.8636H85.3182V31.5ZM79.8409 26.2727H81.4318L78.6136 31.5H76.9773L79.8409 26.2727ZM93.8026 26.5227V27.7727H88.9844V26.5227H93.8026ZM89.3026 22.7727V31.5H87.9616V22.7727H89.3026ZM94.8253 22.7727V31.5H93.4844V22.7727H94.8253ZM96.3423 34V30.25H97.0696C97.2476 30.0644 97.401 29.8636 97.5298 29.6477C97.6586 29.4318 97.7704 29.1761 97.8651 28.8807C97.9635 28.5814 98.0469 28.2178 98.1151 27.7898C98.1832 27.358 98.2438 26.8371 98.2969 26.2273L98.5923 22.7727H104.138V30.25H105.479V34H104.138V31.5H97.6832V34H96.3423ZM98.5923 30.25H102.797V24.0227H99.8423L99.6151 26.2273C99.5204 27.1402 99.4029 27.9375 99.2628 28.6193C99.1226 29.3011 98.8991 29.8447 98.5923 30.25ZM110.918 31.6818C110.077 31.6818 109.351 31.4962 108.741 31.125C108.135 30.75 107.668 30.2273 107.338 29.5568C107.012 28.8826 106.849 28.0985 106.849 27.2045C106.849 26.3106 107.012 25.5227 107.338 24.8409C107.668 24.1553 108.126 23.6212 108.713 23.2386C109.304 22.8523 109.993 22.6591 110.781 22.6591C111.236 22.6591 111.685 22.7348 112.128 22.8864C112.571 23.0379 112.974 23.2841 113.338 23.625C113.702 23.9621 113.991 24.4091 114.207 24.9659C114.423 25.5227 114.531 26.2083 114.531 27.0227V27.5909H107.804V26.4318H113.168C113.168 25.9394 113.069 25.5 112.872 25.1136C112.679 24.7273 112.402 24.4223 112.043 24.1989C111.687 23.9754 111.266 23.8636 110.781 23.8636C110.247 23.8636 109.785 23.9962 109.395 24.2614C109.009 24.5227 108.711 24.8636 108.503 25.2841C108.295 25.7045 108.19 26.1553 108.19 26.6364V27.4091C108.19 28.0682 108.304 28.6269 108.531 29.0852C108.762 29.5398 109.082 29.8864 109.491 30.125C109.901 30.3598 110.376 30.4773 110.918 30.4773C111.27 30.4773 111.588 30.428 111.872 30.3295C112.16 30.2273 112.408 30.0758 112.616 29.875C112.825 29.6705 112.986 29.4167 113.099 29.1136L114.395 29.4773C114.259 29.9167 114.029 30.303 113.707 30.6364C113.385 30.9659 112.988 31.2235 112.514 31.4091C112.041 31.5909 111.509 31.6818 110.918 31.6818ZM116.571 31.5V22.7727H117.912V26.5682H118.798L121.935 22.7727H123.662L120.139 26.9773L123.707 31.5H121.98L119.116 27.8182H117.912V31.5H116.571ZM128.351 31.6818C127.533 31.6818 126.828 31.4886 126.237 31.1023C125.646 30.7159 125.192 30.1837 124.874 29.5057C124.555 28.8277 124.396 28.053 124.396 27.1818C124.396 26.2955 124.559 25.5133 124.885 24.8352C125.214 24.1534 125.673 23.6212 126.26 23.2386C126.851 22.8523 127.54 22.6591 128.328 22.6591C128.942 22.6591 129.495 22.7727 129.987 23C130.48 23.2273 130.883 23.5455 131.197 23.9545C131.512 24.3636 131.707 24.8409 131.783 25.3864H130.442C130.339 24.9886 130.112 24.6364 129.76 24.3295C129.411 24.0189 128.942 23.8636 128.351 23.8636C127.828 23.8636 127.37 24 126.976 24.2727C126.586 24.5417 126.281 24.9223 126.061 25.4148C125.845 25.9034 125.737 26.4773 125.737 27.1364C125.737 27.8106 125.843 28.3977 126.055 28.8977C126.271 29.3977 126.574 29.786 126.964 30.0625C127.358 30.339 127.821 30.4773 128.351 30.4773C128.699 30.4773 129.016 30.4167 129.3 30.2955C129.584 30.1742 129.824 30 130.021 29.7727C130.218 29.5455 130.358 29.2727 130.442 28.9545H131.783C131.707 29.4697 131.519 29.9337 131.22 30.3466C130.925 30.7557 130.533 31.0814 130.044 31.3239C129.559 31.5625 128.995 31.6818 128.351 31.6818ZM138.425 31.5V19.8636H139.834V25.0455H146.038V19.8636H147.447V31.5H146.038V26.2955H139.834V31.5H138.425ZM152.655 31.7045C152.102 31.7045 151.6 31.6004 151.149 31.392C150.698 31.1799 150.34 30.875 150.075 30.4773C149.81 30.0758 149.678 29.5909 149.678 29.0227C149.678 28.5227 149.776 28.1174 149.973 27.8068C150.17 27.4924 150.433 27.2462 150.763 27.0682C151.092 26.8902 151.456 26.7576 151.854 26.6705C152.255 26.5795 152.659 26.5076 153.064 26.4545C153.594 26.3864 154.024 26.3352 154.354 26.3011C154.687 26.2633 154.929 26.2008 155.081 26.1136C155.236 26.0265 155.314 25.875 155.314 25.6591V25.6136C155.314 25.053 155.161 24.6174 154.854 24.3068C154.551 23.9962 154.09 23.8409 153.473 23.8409C152.833 23.8409 152.331 23.9811 151.967 24.2614C151.604 24.5417 151.348 24.8409 151.2 25.1591L149.928 24.7045C150.155 24.1742 150.458 23.7614 150.837 23.4659C151.219 23.1667 151.636 22.9583 152.087 22.8409C152.541 22.7197 152.988 22.6591 153.428 22.6591C153.708 22.6591 154.03 22.6932 154.393 22.7614C154.761 22.8258 155.115 22.9602 155.456 23.1648C155.801 23.3693 156.087 23.678 156.314 24.0909C156.541 24.5038 156.655 25.0568 156.655 25.75V31.5H155.314V30.3182H155.246C155.155 30.5076 155.003 30.7102 154.791 30.9261C154.579 31.142 154.297 31.3258 153.945 31.4773C153.592 31.6288 153.162 31.7045 152.655 31.7045ZM152.859 30.5C153.39 30.5 153.837 30.3958 154.2 30.1875C154.568 29.9792 154.844 29.7102 155.03 29.3807C155.219 29.0511 155.314 28.7045 155.314 28.3409V27.1136C155.257 27.1818 155.132 27.2443 154.939 27.3011C154.75 27.3542 154.53 27.4015 154.28 27.4432C154.034 27.4811 153.793 27.5152 153.558 27.5455C153.327 27.572 153.14 27.5947 152.996 27.6136C152.647 27.6591 152.321 27.733 152.018 27.8352C151.719 27.9337 151.477 28.0833 151.291 28.2841C151.109 28.4811 151.018 28.75 151.018 29.0909C151.018 29.5568 151.191 29.9091 151.536 30.1477C151.884 30.3826 152.325 30.5 152.859 30.5ZM159.102 31.5V22.7727H162.67C163.61 22.7727 164.356 22.9848 164.909 23.4091C165.462 23.8333 165.739 24.3939 165.739 25.0909C165.739 25.6212 165.581 26.0322 165.267 26.3239C164.953 26.6117 164.549 26.8068 164.057 26.9091C164.379 26.9545 164.691 27.0682 164.994 27.25C165.301 27.4318 165.555 27.6818 165.756 28C165.956 28.3144 166.057 28.7008 166.057 29.1591C166.057 29.6061 165.943 30.0057 165.716 30.358C165.489 30.7102 165.163 30.9886 164.739 31.1932C164.314 31.3977 163.807 31.5 163.216 31.5H159.102ZM160.375 30.2727H163.216C163.678 30.2727 164.04 30.1629 164.301 29.9432C164.563 29.7235 164.693 29.4242 164.693 29.0455C164.693 28.5947 164.563 28.2405 164.301 27.983C164.04 27.7216 163.678 27.5909 163.216 27.5909H160.375V30.2727ZM160.375 26.4318H162.67C163.03 26.4318 163.339 26.3826 163.597 26.2841C163.854 26.1818 164.051 26.0379 164.188 25.8523C164.328 25.6629 164.398 25.4394 164.398 25.1818C164.398 24.8144 164.244 24.5265 163.938 24.3182C163.631 24.1061 163.208 24 162.67 24H160.375V26.4318ZM169.428 29.5227L173.632 22.7727H175.178V31.5H173.837V24.75L169.655 31.5H168.087V22.7727H169.428V29.5227ZM183.02 22.7727V24.0227H178.974V31.5H177.634V22.7727H183.02ZM187.092 31.7045C186.539 31.7045 186.037 31.6004 185.587 31.392C185.136 31.1799 184.778 30.875 184.513 30.4773C184.248 30.0758 184.115 29.5909 184.115 29.0227C184.115 28.5227 184.214 28.1174 184.411 27.8068C184.607 27.4924 184.871 27.2462 185.2 27.0682C185.53 26.8902 185.893 26.7576 186.291 26.6705C186.693 26.5795 187.096 26.5076 187.501 26.4545C188.032 26.3864 188.462 26.3352 188.791 26.3011C189.125 26.2633 189.367 26.2008 189.518 26.1136C189.674 26.0265 189.751 25.875 189.751 25.6591V25.6136C189.751 25.053 189.598 24.6174 189.291 24.3068C188.988 23.9962 188.528 23.8409 187.911 23.8409C187.27 23.8409 186.768 23.9811 186.405 24.2614C186.041 24.5417 185.786 24.8409 185.638 25.1591L184.365 24.7045C184.592 24.1742 184.895 23.7614 185.274 23.4659C185.657 23.1667 186.073 22.9583 186.524 22.8409C186.979 22.7197 187.426 22.6591 187.865 22.6591C188.145 22.6591 188.467 22.6932 188.831 22.7614C189.198 22.8258 189.553 22.9602 189.893 23.1648C190.238 23.3693 190.524 23.678 190.751 24.0909C190.979 24.5038 191.092 25.0568 191.092 25.75V31.5H189.751V30.3182H189.683C189.592 30.5076 189.441 30.7102 189.229 30.9261C189.017 31.142 188.734 31.3258 188.382 31.4773C188.03 31.6288 187.6 31.7045 187.092 31.7045ZM187.297 30.5C187.827 30.5 188.274 30.3958 188.638 30.1875C189.005 29.9792 189.282 29.7102 189.467 29.3807C189.657 29.0511 189.751 28.7045 189.751 28.3409V27.1136C189.695 27.1818 189.57 27.2443 189.376 27.3011C189.187 27.3542 188.967 27.4015 188.717 27.4432C188.471 27.4811 188.231 27.5152 187.996 27.5455C187.765 27.572 187.577 27.5947 187.433 27.6136C187.085 27.6591 186.759 27.733 186.456 27.8352C186.157 27.9337 185.914 28.0833 185.729 28.2841C185.547 28.4811 185.456 28.75 185.456 29.0909C185.456 29.5568 185.628 29.9091 185.973 30.1477C186.321 30.3826 186.763 30.5 187.297 30.5ZM192.352 24.0227V22.7727H199.443V24.0227H196.58V31.5H195.239V24.0227H192.352ZM204.491 31.6818C203.704 31.6818 203.012 31.4943 202.418 31.1193C201.827 30.7443 201.365 30.2197 201.031 29.5455C200.702 28.8712 200.537 28.0833 200.537 27.1818C200.537 26.2727 200.702 25.4792 201.031 24.8011C201.365 24.1231 201.827 23.5966 202.418 23.2216C203.012 22.8466 203.704 22.6591 204.491 22.6591C205.279 22.6591 205.969 22.8466 206.56 23.2216C207.154 23.5966 207.616 24.1231 207.946 24.8011C208.279 25.4792 208.446 26.2727 208.446 27.1818C208.446 28.0833 208.279 28.8712 207.946 29.5455C207.616 30.2197 207.154 30.7443 206.56 31.1193C205.969 31.4943 205.279 31.6818 204.491 31.6818ZM204.491 30.4773C205.09 30.4773 205.582 30.3239 205.969 30.017C206.355 29.7102 206.641 29.3068 206.827 28.8068C207.012 28.3068 207.105 27.7652 207.105 27.1818C207.105 26.5985 207.012 26.0549 206.827 25.5511C206.641 25.0473 206.355 24.6402 205.969 24.3295C205.582 24.0189 205.09 23.8636 204.491 23.8636C203.893 23.8636 203.401 24.0189 203.014 24.3295C202.628 24.6402 202.342 25.0473 202.156 25.5511C201.971 26.0549 201.878 26.5985 201.878 27.1818C201.878 27.7652 201.971 28.3068 202.156 28.8068C202.342 29.3068 202.628 29.7102 203.014 30.017C203.401 30.3239 203.893 30.4773 204.491 30.4773ZM210.493 34.7727V22.7727H211.788V24.1591H211.947C212.046 24.0076 212.182 23.8144 212.357 23.5795C212.535 23.3409 212.788 23.1288 213.118 22.9432C213.451 22.7538 213.902 22.6591 214.47 22.6591C215.205 22.6591 215.853 22.8428 216.413 23.2102C216.974 23.5777 217.411 24.0985 217.726 24.7727C218.04 25.447 218.197 26.2424 218.197 27.1591C218.197 28.0833 218.04 28.8845 217.726 29.5625C217.411 30.2367 216.976 30.7595 216.419 31.1307C215.862 31.4981 215.22 31.6818 214.493 31.6818C213.932 31.6818 213.483 31.589 213.146 31.4034C212.809 31.214 212.55 31 212.368 30.7614C212.186 30.5189 212.046 30.3182 211.947 30.1591H211.834V34.7727H210.493ZM211.811 27.1364C211.811 27.7955 211.908 28.3769 212.101 28.8807C212.294 29.3807 212.576 29.7727 212.947 30.0568C213.319 30.3371 213.773 30.4773 214.311 30.4773C214.872 30.4773 215.339 30.3295 215.714 30.0341C216.093 29.7348 216.377 29.3333 216.567 28.8295C216.76 28.322 216.857 27.7576 216.857 27.1364C216.857 26.5227 216.762 25.9697 216.572 25.4773C216.387 24.9811 216.105 24.589 215.726 24.3011C215.351 24.0095 214.879 23.8636 214.311 23.8636C213.766 23.8636 213.307 24.0019 212.936 24.2784C212.565 24.5511 212.285 24.9337 212.095 25.4261C211.906 25.9148 211.811 26.4848 211.811 27.1364Z" fill="#272525"/>
<defs>
<linearGradient id="paint0_linear_4247_1366" x1="26.0017" y1="46.0027" x2="66.0034" y2="6.00101" gradientUnits="userSpaceOnUse">
<stop stop-color="#FFCC00"/>
<stop offset="1" stop-color="#FFE992"/>
</linearGradient>
</defs>
</svg>
